<svg width="687" height="620" viewBox="0 0 687 620" fill="none" xmlns="http://www.w3.org/2000/svg">
<path opacity="0.16" d="M29.9937 532.267C29.9937 532.267 -7.14178 453.427 54.6612 404.677C116.464 355.915 3.11783 306.416 44.016 245.863C84.9141 185.311 223.968 234.389 220.462 122.211C216.957 10.0331 333.809 -20.3484 372.37 13.5386C410.931 47.4257 416.236 212.596 526.93 194.869C637.623 177.131 741.621 411.185 652.814 531.952L29.9937 532.267Z" fill="#2A94F4"/>
<path d="M682.81 543.777C682.81 552.6 675.659 559.763 666.825 559.763H16.7661C7.94379 559.763 0.780762 552.611 0.780762 543.777C0.780762 534.955 7.9321 527.792 16.7661 527.792H666.836C675.659 527.804 682.81 534.955 682.81 543.777Z" fill="#F7F7F7"/>
<path d="M176.07 436.133L154.838 358.287H211.465V427.778H251.358V439.358H249.43L251.673 528.47H247.175V438.389H184.764L177.04 528.47H173.184L176.07 436.133Z" fill="#D3D3D3"/>
<path d="M293.962 410.636C292.303 409.456 290.772 408.089 290.071 407.692C289.779 407.528 288.856 407.318 288.599 407.236C287.827 407.002 286.6 406.768 286.063 406.161L283.784 403.66C282.698 402.433 281.284 402.024 280.057 403.111C278.725 404.279 279.122 405.95 280.442 407.131L282.008 408.907C283.06 409.853 283.586 411.185 284.17 412.482C285.362 415.112 288.038 417.086 290.34 418.477C291.789 419.342 293.974 418.734 296.837 417.753C298.239 417.273 300.284 416.105 298.531 415.45C297.059 414.901 292.63 416.093 290.667 412.015C290.573 411.816 290.363 411.279 290.562 411.092C291.158 410.531 292.466 411.793 293.343 412.19C294.57 412.751 295.551 412.564 295.867 412.109C296.182 411.641 295.142 411.478 293.962 410.636Z" fill="#FAB9AF"/>
<path d="M231.598 321.058C231.598 321.058 235.256 364.994 248.39 379.822C256.312 388.762 275.663 404.081 280.15 407.598C280.723 408.042 281.517 408.065 282.113 407.645C282.487 407.376 282.92 407.049 283.294 406.722C283.667 406.395 284.111 405.904 284.497 405.448C285.151 404.688 285.116 403.555 284.439 402.819C279.414 397.35 259.701 375.709 257.306 370.019C254.56 363.486 249.827 324.96 245.48 319.375C241.133 313.789 232.79 312.574 231.598 321.058Z" fill="#00A76F"/>
<path d="M248.18 393.646L236.985 314.946L206.767 310.81L191.051 393.073L248.18 393.646Z" fill="#FAB9AF"/>
<path d="M249.336 391.636L236.985 314.946L206.767 310.798L190.525 391.776C190.221 393.295 191.203 394.779 192.733 395.06C198.354 396.123 211.932 398.355 227.111 398.355C238.446 398.355 244.814 396.146 247.712 394.756C248.286 394.484 248.756 394.033 249.049 393.469C249.342 392.906 249.443 392.262 249.336 391.636Z" fill="#D3D3D3"/>
<path d="M216.209 315.577C216.209 321.104 215.204 326.573 213.323 331.761C209.63 341.916 204.091 361.126 207.387 378.046C212.119 402.41 218.219 412.261 210.319 417.94C202.42 423.619 187.276 414.142 186.844 410.987C186.412 407.832 189.789 369.025 193.621 352.21C197.454 335.395 208.204 311.23 208.204 311.23L212.762 311.721C213.709 311.83 214.583 312.283 215.219 312.994C215.854 313.705 216.206 314.624 216.209 315.577ZM228.794 313.825C228.794 313.825 234.029 325.148 232.206 341.425C230.383 357.691 226.141 407.248 240.946 414.726C245.632 417.098 256.347 406.605 256.347 402.714C256.347 398.823 252.772 385.794 249.383 373.945C245.994 362.096 237.838 315.075 237.838 315.075L228.794 313.825Z" fill="#047851"/>
<path d="M224.575 278.722C217.833 278.722 215.321 283.525 215.192 292.406C215.145 295.736 216.641 299.031 217.845 301.134C218.745 302.7 218.99 304.546 218.476 306.276L216.992 311.289C215.987 315.939 218.195 318.487 221.455 319.41C223.068 319.866 225.008 319.515 226.41 318.604C228.081 317.517 228.221 315.192 227.917 313.217L227.532 311.791C227.018 309.863 228.128 307.795 230.079 307.363C235.267 306.229 236.015 300.819 237.406 292.406C238.843 283.642 231.318 278.722 224.575 278.722Z" fill="#FAB9AF"/>
<path d="M240.269 274.831L236.401 276.011C234.982 276.445 233.466 276.453 232.042 276.035L224.318 273.791C219.644 273.791 211.92 276.432 212.89 283.186L213.755 287.953C214.094 289.858 215.695 291.284 217.623 291.447C217.798 292.102 218.406 292.569 219.083 292.569C219.925 292.569 220.603 291.891 220.603 291.062C220.603 288.912 222.11 287.077 224.213 286.598C226.784 286.025 229.542 285.885 232.416 286.656C237.78 288.094 243.435 284.775 243.973 279.236C244.008 278.886 244.02 278.535 244.02 278.173C244.031 275.941 242.185 274.305 240.269 274.831Z" fill="#0B4870"/>
<path d="M218.897 292.569C218.897 294.626 218.125 296.297 216.15 296.297C214.164 296.297 212.89 293.469 212.89 291.413C212.89 289.356 214.164 288.842 216.15 288.842C218.137 288.842 218.897 290.513 218.897 292.569Z" fill="#FAB9AF"/>
<path d="M218.078 301.613C218.078 301.613 223.115 308.543 229.378 307.596C229.378 307.596 228.081 308.215 227.766 309.232C227.766 309.232 221.818 308.788 218.078 301.613Z" fill="#E8948B"/>
<path d="M157.269 460.123L149.966 470.324C148.48 472.4 147.292 474.673 146.437 477.078L145.093 480.864C143.983 483.972 140.22 485.153 137.533 483.236C130.58 478.27 118.661 469.833 115.588 467.66C115.085 467.309 114.828 466.62 115.144 466.082C117.002 462.916 124.679 469.857 132.964 471.96C139.274 473.561 147.699 461.642 150.772 456.021C151.94 453.895 154.756 453.381 156.614 454.946C157.357 455.567 157.837 456.446 157.958 457.406C158.08 458.366 157.833 459.337 157.269 460.123Z" fill="#FAB9AF"/>
<path d="M254.887 406.745C253.45 406.021 231.879 380.851 218.207 378.701C204.547 376.539 203.11 385.174 185.851 405.308C168.592 425.442 142.697 465.72 142.697 465.72L150.608 471.47C150.608 471.47 187.288 426.879 198.786 416.093C210.296 405.308 214.97 402.784 218.558 412.857C222.157 422.929 230.78 440.188 248.039 430.116C265.31 420.055 254.887 406.745 254.887 406.745Z" fill="#0B4870"/>
<path d="M222.577 497.995L226.901 512.344C227.088 512.975 227.38 513.583 227.742 514.132L230.804 518.677C232.743 521.564 231.353 525.513 228.023 526.53C228.023 526.53 221.841 528.703 215.473 530.795C208.952 532.933 200.749 531.146 200.749 529.428C200.749 525.607 204.313 528.645 210.284 524.649C212.283 523.316 214.351 521.914 216.185 520.465C221.327 516.434 216.84 506.221 213.697 500.472C212.563 498.404 213.767 495.833 216.069 495.342L217.553 495.027C219.761 494.571 221.935 495.856 222.577 497.995Z" fill="#FAB9AF"/>
<path d="M211.021 400.272C211.021 400.272 189.45 398.834 194.486 422.567C199.522 446.3 214.62 506.7 214.62 506.7H228.28L224.681 421.843C224.681 421.854 213.895 400.272 211.021 400.272ZM227.088 512.87C227.088 512.87 221.689 515.628 218.511 515.675C218.511 515.675 219.492 520.454 211.944 523.55C204.395 526.659 200.527 524.719 200.527 529.229C200.527 533.728 210.179 535.668 216.618 533.728C223.056 531.8 231.411 526.004 233.351 524.719C235.267 523.434 227.088 512.87 227.088 512.87ZM147.219 474.519C147.219 474.519 141.283 471.598 139.18 468.84C139.18 468.84 135.639 472.813 128.009 468.233C120.379 463.652 119.549 459.013 115.611 461.946C111.673 464.879 116.277 474.578 122.155 478.948C128.032 483.318 138.549 486.859 140.933 487.712C143.317 488.565 147.219 474.519 147.219 474.519Z" fill="#0B4870"/>
<path d="M208 311C208 311 196.986 340.229 198.155 358.926C199.323 377.622 199.312 392.871 188.795 381.151C178.278 369.431 185.798 309.831 208 311Z" fill="#00A76F"/>
<path d="M249.734 343.131C248.063 345.188 246.17 347.069 245.597 347.957C245.352 348.331 245.013 349.511 244.896 349.838C244.534 350.82 244.136 352.409 243.307 353.052L239.871 355.821C238.189 357.13 237.546 358.93 238.855 360.612C240.269 362.435 242.465 362.049 244.113 360.437L246.544 358.544C247.864 357.247 249.64 356.674 251.358 356.02C254.875 354.688 257.656 351.357 259.654 348.471C260.905 346.66 260.274 343.774 259.234 339.964C258.72 338.095 257.364 335.349 256.371 337.581C255.541 339.45 256.745 345.305 251.264 347.525C250.996 347.63 250.283 347.864 250.061 347.595C249.383 346.777 251.124 345.176 251.72 344.066C252.55 342.512 252.374 341.215 251.814 340.782C251.229 340.315 250.925 341.67 249.734 343.131Z" fill="#FAB9AF"/>
<path d="M185.675 373.139C185.675 373.139 188.258 395.189 200.422 387.032C212.598 378.876 234.8 368.359 240.643 363.685L246.485 359.011L242.874 351.381L185.675 373.139Z" fill="#00A76F"/>
<path d="M544.773 434.965L566.005 357.118H509.39V426.61H469.497V438.19H471.425L469.17 527.301H473.68V437.22H536.091L543.815 527.301H547.671L544.773 434.965Z" fill="#D3D3D3"/>
<path d="M491.138 342.885C498.734 342.885 504.891 334.944 504.891 325.147C504.891 315.351 498.734 307.409 491.138 307.409C483.542 307.409 477.384 315.351 477.384 325.147C477.384 334.944 483.542 342.885 491.138 342.885Z" fill="#0B4870"/>
<path d="M494.433 326.982C494.655 317.166 502.601 308.905 512.405 308.344C521.099 307.842 528.612 313.182 531.428 320.789C532.41 323.453 535.027 325.194 537.867 325.147C539.047 325.124 540.262 325.241 541.501 325.486C548.687 326.959 554.273 333.035 555.021 340.326C555.698 346.905 552.625 352.818 547.671 356.183C545.556 357.621 544.364 360.004 544.013 362.528C542.389 374.237 531.709 382.825 519.509 381.493C509.086 380.348 500.743 371.771 499.855 361.325C499.306 354.91 501.514 349.032 505.382 344.662C498.803 341.553 494.258 334.799 494.433 326.982ZM491.138 301.59C491.138 301.59 483.402 306.463 484.337 313.018C484.337 313.018 480.201 310.097 479.266 300.013C478.623 293.025 491.138 301.59 491.138 301.59Z" fill="#0B4870"/>
<path d="M486.37 341.565C486.183 347.256 485.809 352.982 485.003 358.742C484.162 364.48 482.982 370.287 480.797 375.908C479.71 378.712 478.366 381.458 476.683 384.041C475.012 386.623 472.944 389.007 470.514 390.947C468.095 392.898 465.372 394.429 462.521 395.434C459.658 396.439 456.713 396.941 453.804 397.14C452.962 397.198 452.238 396.556 452.18 395.726C452.133 394.955 452.659 394.289 453.383 394.137H453.395C458.665 393.027 463.456 390.608 466.856 386.962C470.292 383.34 472.395 378.607 473.68 373.606C474.966 368.581 475.538 363.276 475.76 357.901C475.889 355.213 475.924 352.502 475.9 349.78C475.889 347.057 475.842 344.323 475.749 341.589C475.7 340.181 476.211 338.812 477.171 337.782C478.131 336.752 479.46 336.144 480.867 336.093C482.274 336.042 483.644 336.552 484.676 337.51C485.708 338.468 486.317 339.796 486.37 341.203V341.565Z" fill="#FAB9AF"/>
<path d="M482.479 375.558C479.383 366.233 473.154 346.473 473.692 340.011C473.856 338.018 474.765 336.16 476.238 334.807C477.71 333.453 479.638 332.704 481.638 332.708H508.572C513.036 332.708 516.693 336.249 516.822 340.712C517.044 348.518 513.457 366.268 511.435 375.558H482.479Z" fill="#2A94F4"/>
<path d="M514.508 387.383C513.118 383.472 512.697 379.282 513.281 375.172C514.637 365.625 517.021 347.642 516.799 340.011C516.742 338.051 515.923 336.19 514.515 334.824C513.108 333.458 511.223 332.695 509.262 332.696H505.265C503.746 336.225 500.521 338.948 495.508 338.948C490.507 338.948 487.282 336.225 485.763 332.696H482.012C486.09 341.425 484.618 352.935 477.606 359.654C478.915 364.258 480.002 368.897 480.82 372.648C481.93 377.731 481.439 383.036 479.441 387.85C475.994 396.112 473.271 409.363 474.078 414.609C502.414 422.637 521.999 408.428 521.999 408.428L514.508 387.383Z" fill="#2596BE"/>
<path d="M491.138 334.566L503.361 333.28L499.493 319.913L491.594 320.882L491.138 334.566Z" fill="#FAB9AF"/>
<path d="M491.594 320.882L499.493 319.901L500.696 324.072C498.932 326.071 496.653 330.371 493.779 330.371C492.867 330.371 492.038 330.114 491.29 329.635L491.594 320.882Z" fill="#FA968C"/>
<path d="M491.313 327.356C494.001 327.356 496.899 326.012 500.895 322.518C503.185 320.508 504.891 317.014 504.891 314.654V301.59H484.781C484.781 301.59 483.274 308.531 484.735 315.413C485.833 320.567 489.21 327.356 491.313 327.356Z" fill="#FAB9AF"/>
<path d="M501.479 312.177C501.479 314.725 502.695 316.793 504.202 316.793C505.709 316.793 507.369 313.451 507.369 310.903C507.369 308.356 505.709 307.562 504.202 307.562C502.706 307.562 501.479 309.63 501.479 312.177Z" fill="#FAB9AF"/>
<path d="M507.369 303.167C507.369 301.209 506.591 299.33 505.206 297.945C503.821 296.56 501.942 295.782 499.984 295.782H493.195C491.255 295.782 489.374 295.28 487.714 294.333C485.319 292.978 482.292 293.422 480.656 295.642C478.892 298.038 478.121 301.251 482.608 304.219C484.84 305.691 488.088 304.055 490.262 304.768C490.39 304.768 490.519 304.745 490.659 304.745H496.642C498.722 304.745 500.311 306.439 500.369 308.519C500.404 309.84 501.479 310.891 502.811 310.891H503.08L504.038 307.818L507.38 312.317V303.167H507.369Z" fill="#0B4870"/>
<path d="M448.218 391.063C448.218 391.063 455.253 391.881 455.72 394.113C456.176 396.345 456.082 397.923 452.857 398.717C449.632 399.512 444.841 399.056 442.013 398.215C439.186 397.373 435.061 393.961 434.85 393.295C434.114 390.9 439.069 392.968 441.523 393.856C443.965 394.744 446.828 395.492 446.91 394.195C447.003 392.898 442.189 391.554 441.803 390.035C441.418 388.516 448.218 391.063 448.218 391.063ZM469.158 394.172C469.158 394.172 476.146 393.026 477.209 395.048C478.261 397.07 478.6 398.612 475.725 400.26C472.839 401.907 468.106 402.795 465.162 402.76C462.217 402.725 457.298 400.575 456.924 400.003C455.557 397.899 460.897 398.53 463.491 398.705C466.085 398.881 469.041 398.822 468.772 397.549C468.504 396.275 463.502 396.31 462.72 394.955C461.925 393.599 469.158 394.172 469.158 394.172Z" fill="#FAB9AF"/>
<path d="M486.277 301.356C486.955 304.336 485.961 305.972 495.742 310.634C505.522 315.297 508.619 313.298 511.681 318.323C511.681 318.323 510.348 310.015 504.938 307.164C499.54 304.313 490.168 302.443 487.153 295.841C487.153 295.841 485.821 299.311 486.277 301.356Z" fill="#0B4870"/>
<path d="M515.77 338.27C517.266 340.245 518.458 342.056 519.685 344.007C520.888 345.935 522.045 347.887 523.12 349.897C525.247 353.928 527.152 358.123 528.624 362.575C530.061 367.027 531.078 371.771 531.043 376.831C531.008 379.355 530.669 381.961 529.874 384.508C529.115 387.056 527.794 389.509 526.088 391.578C524.394 393.658 522.337 395.364 520.176 396.672C518.002 397.993 515.735 398.951 513.457 399.687C511.178 400.423 508.888 400.879 506.609 401.265C504.33 401.568 502.064 401.802 499.808 401.861C490.799 402.2 482.047 401.078 473.47 399.465C472.64 399.313 472.103 398.519 472.255 397.689C472.395 396.929 473.073 396.415 473.82 396.45H473.844C478.144 396.661 482.421 396.824 486.686 396.743C490.939 396.684 495.169 396.462 499.283 395.878C503.396 395.294 507.404 394.382 511.003 392.922C514.578 391.437 517.663 389.311 519.486 386.576C521.344 383.877 522.034 380.547 521.87 376.948C521.683 373.337 520.643 369.551 519.241 365.859C517.85 362.143 516.027 358.485 513.982 354.945C512.967 353.161 511.899 351.407 510.781 349.686C510.22 348.822 509.647 347.98 509.063 347.139C508.502 346.321 507.871 345.421 507.345 344.732L507.299 344.662C505.534 342.325 506.001 338.994 508.339 337.23C510.676 335.465 514.006 335.933 515.77 338.27Z" fill="#FAB9AF"/>
<path d="M488.158 301.917C488.158 301.917 487.784 311.966 478.997 316.804C478.997 316.804 482.865 309.209 482.608 304.231C482.351 299.265 488.742 298.482 488.158 301.917Z" fill="#0B4870"/>
<path d="M452.273 496.218L449.118 510.217C448.16 514.494 448.756 518.993 450.824 522.861C451.981 525.022 450.953 527.71 448.639 528.528C441.16 531.192 426.671 536.263 426.028 535.714C422.733 532.922 431.438 528.318 437.877 523.48C442.212 520.22 443.871 505.017 444.257 493.355L451.163 495.097C451.7 495.26 452.121 495.681 452.273 496.218Z" fill="#FA968C"/>
<path d="M493.72 407.143L522.501 408.416C522.501 408.416 530.178 432.079 516.109 433.995C502.04 435.911 461.107 431.436 459.822 437.828C458.548 444.22 452.144 500.507 452.144 500.507H442.551C442.551 500.507 443.194 464.692 442.551 446.136C441.908 427.58 439.349 419.914 447.026 416.713C454.703 413.546 493.72 407.143 493.72 407.143Z" fill="#0B4870"/>
<path d="M460.499 462.811C460.499 462.811 462.147 476.833 462.603 479.193C462.977 481.145 464.332 482.687 465.606 484.206C466.015 484.697 466.319 485.655 466.576 486.473C466.786 487.127 466.611 487.817 466.225 488.378C459.284 498.17 445.916 499.245 445.858 498.345C445.741 496.733 448.347 494.255 451.303 493.472C454.283 492.678 456.538 490.236 457.449 487.291C458.174 484.954 458.291 482.465 457.788 480.07L455.381 469.308L460.499 462.811Z" fill="#FA968C"/>
<path d="M468.258 492.257C468.936 491.802 469.181 490.925 468.843 490.189C468.562 489.581 467.826 487.934 467.265 486.695C467.209 486.573 467.123 486.467 467.015 486.387C466.907 486.307 466.781 486.256 466.648 486.238C466.514 486.221 466.379 486.238 466.254 486.287C466.129 486.336 466.018 486.416 465.933 486.52C461.586 491.58 455.72 494.851 449.445 494.045C447.12 494.84 445.063 497.492 445.157 498.766C445.18 499.07 447.856 499.829 451.116 498.976C465.582 495.202 468.258 492.257 468.258 492.257ZM477.057 410.648L457.87 415.123L462.346 474.613L455.311 475.886C455.311 475.886 438.04 434.311 438.683 415.123C439.326 395.936 454.668 401.697 463.631 404.245C472.582 406.815 477.057 410.648 477.057 410.648ZM439.349 527.477C436.253 528.493 432.864 528.82 429.756 529.206C429.405 529.253 429.055 529.393 428.774 529.603C425.794 531.917 424.287 534.242 426.04 535.715C426.741 536.31 443.766 530.281 450.403 527.897C451.794 527.395 452.401 525.794 451.7 524.485L450.438 522.113C446.968 524.333 443.264 526.179 439.349 527.477ZM273.478 388.248H431.111V394.043H273.478V388.248Z" fill="#0B4870"/>
<path d="M281.202 394.043H284.415V528.517H281.202V394.043ZM419.531 394.043H422.745V528.517H419.531V394.043Z" fill="#76838B"/>
<path d="M616.403 528.622C616.403 530.924 614.534 532.782 612.243 532.782H596.176C593.874 532.782 592.016 530.912 592.016 528.622V491.147C592.016 488.845 593.886 486.987 596.176 486.987H612.243C614.545 486.987 616.403 488.857 616.403 491.147V528.622Z" fill="#00A76F"/>
<path opacity="0.4" d="M606.132 443.846C606.132 443.846 592.986 470.57 612.36 475.127C631.734 479.684 632.295 459.515 630.308 451.207C628.322 442.899 659.066 420.557 633.709 400.797C608.352 381.038 588.592 433.644 606.132 443.846Z" fill="#2A94F4"/>
<path opacity="0.4" d="M581.651 458.347C581.651 458.347 581.032 475.933 592.577 473.701C604.122 471.469 599.541 460.462 596.456 456.466C593.372 452.469 604.543 432.99 586.092 428.468C567.653 423.957 569.732 457.108 581.651 458.347Z" fill="#2A94F4"/>
<path d="M583.614 441.777L597.894 486.987M591.946 450.973L588.919 458.569L582.037 454.771M621.615 416.198L609.369 486.987M628.801 426.902L618.658 433.305L612.15 424.518M626.032 441.742L615.877 448.157L609.369 439.37" stroke="#4D4D4D" stroke-miterlimit="10"/>
<path d="M81.2216 528.622C81.2216 530.924 79.3519 532.782 77.0616 532.782H60.9945C58.6925 532.782 56.8346 530.912 56.8346 528.622V491.147C56.8346 488.845 58.7042 486.987 60.9945 486.987H77.0616C79.3636 486.987 81.2216 488.857 81.2216 491.147V528.622Z" fill="#00A76F"/>
<path opacity="0.4" d="M70.9504 443.846C70.9504 443.846 57.8045 470.57 77.1786 475.127C96.5526 479.684 97.1135 459.515 95.127 451.207C93.1405 442.899 123.884 420.557 98.5274 400.797C73.1706 381.038 53.4109 433.644 70.9504 443.846Z" fill="#2A94F4"/>
<path opacity="0.4" d="M46.4699 458.347C46.4699 458.347 45.8506 475.933 57.3955 473.701C68.9405 471.469 64.3599 460.462 61.275 456.466C58.1901 452.469 69.3612 432.99 50.9103 428.468C32.4594 423.946 34.551 457.108 46.4699 458.347Z" fill="#2A94F4"/>
<path d="M48.433 441.777L62.7123 486.987M56.7645 450.973L53.738 458.569L46.8555 454.771M86.4332 416.198L74.1871 486.987M93.6196 426.902L83.4768 433.305L76.9682 424.518M90.8502 441.742L80.6958 448.157L74.1871 439.37" stroke="#4D4D4D" stroke-miterlimit="10"/>
<path d="M324.788 204.989H223.243C220.567 204.989 218.394 207.162 218.394 209.838V245.49C218.394 248.166 220.567 250.339 223.243 250.339H230.231V266.172L249.628 250.339H324.788C327.464 250.339 329.637 248.166 329.637 245.49V209.838C329.636 208.552 329.125 207.319 328.216 206.41C327.306 205.501 326.073 204.99 324.788 204.989ZM225.732 226.232H286.203V228.277H225.732V226.232ZM317.753 235.581H225.732V233.536H317.753V235.581ZM317.753 221.266H225.732V219.221H317.753V221.266Z" fill="#047851"/>
<path d="M388.986 223.86V259.512C388.986 262.188 391.159 264.361 393.835 264.361H468.994L488.392 280.194V264.361H495.38C498.056 264.361 500.229 262.188 500.229 259.512V223.86C500.229 221.184 498.056 219.011 495.38 219.011H393.835C391.159 219.011 388.986 221.172 388.986 223.86ZM492.891 242.299H432.42V240.254H492.891V242.299ZM400.87 247.558H492.891V249.603H400.87V247.558ZM400.87 233.243H492.891V235.288H400.87V233.243Z" fill="#2596BE"/>
<path opacity="0.4" d="M47.6678 371.264C49.2483 363.024 46.4193 355.556 41.3489 354.584C36.2785 353.611 30.8868 359.502 29.3063 367.741C27.7257 375.981 30.5548 383.449 35.6252 384.421C40.6956 385.394 46.0873 379.503 47.6678 371.264Z" fill="#00A76F"/>
<path opacity="0.4" d="M48.79 363.946C52.4406 360.296 51.9818 353.918 47.7652 349.702C43.5486 345.485 37.1709 345.027 33.5203 348.677C29.8697 352.328 30.3285 358.706 34.5451 362.922C38.7617 367.139 45.1394 367.597 48.79 363.946Z" fill="#00A76F"/>
<path opacity="0.4" d="M651.772 371.253C653.352 363.014 650.523 355.546 645.453 354.573C640.382 353.6 634.991 359.491 633.41 367.731C631.83 375.97 634.659 383.438 639.729 384.411C644.8 385.383 650.191 379.492 651.772 371.253Z" fill="#00A76F"/>
<path opacity="0.4" d="M652.91 363.95C656.56 360.3 656.102 353.922 651.885 349.706C647.668 345.489 641.291 345.031 637.64 348.681C633.99 352.332 634.448 358.71 638.665 362.926C642.882 367.143 649.259 367.601 652.91 363.95Z" fill="#00A76F"/>
<path d="M181.048 593.883H52.5111C49.9287 593.883 47.837 591.792 47.837 589.209C47.837 586.627 49.9287 584.535 52.5111 584.535H181.048C183.631 584.535 185.722 586.627 185.722 589.209C185.722 591.792 183.631 593.883 181.048 593.883ZM397.224 593.883H268.687C266.105 593.883 264.013 591.792 264.013 589.209C264.013 586.627 266.105 584.535 268.687 584.535H397.224C399.806 584.535 401.898 586.627 401.898 589.209C401.898 591.792 399.806 593.883 397.224 593.883ZM625.085 593.883H496.548C493.966 593.883 491.874 591.792 491.874 589.209C491.874 586.627 493.966 584.535 496.548 584.535H625.085C627.668 584.535 629.759 586.627 629.759 589.209C629.759 591.792 627.668 593.883 625.085 593.883ZM293.226 619.591H164.689C162.106 619.591 160.015 617.499 160.015 614.917C160.015 612.334 162.106 610.243 164.689 610.243H293.226C295.808 610.243 297.9 612.334 297.9 614.917C297.9 617.499 295.808 619.591 293.226 619.591ZM516.413 619.591H387.876C385.293 619.591 383.202 617.499 383.202 614.917C383.202 612.334 385.293 610.243 387.876 610.243H516.413C518.995 610.243 521.087 612.334 521.087 614.917C521.087 617.499 518.995 619.591 516.413 619.591Z" fill="#D3D3D3"/>
</svg>
