<svg height="200px" width="200px" viewBox="0 0 850 1000" fill="none" xmlns="http://www.w3.org/2000/svg">
<path opacity="0.06" d="M97.9938 803.267C97.9938 803.267 60.8583 724.427 122.661 675.677C184.464 626.915 71.1179 577.416 112.016 516.863C152.914 456.311 291.968 505.389 288.462 393.211C284.957 281.033 401.809 250.652 440.37 284.539C478.931 318.426 484.236 483.596 594.93 465.869C705.623 448.131 809.622 682.185 720.814 802.952L97.9938 803.267Z" fill="#2596be"/>
<path d="M750.81 814.777C750.81 823.6 743.659 830.763 734.825 830.763H84.7661C75.9438 830.763 68.7808 823.611 68.7808 814.777C68.7808 805.955 75.9321 798.792 84.7661 798.792H734.836C743.659 798.804 750.81 805.955 750.81 814.777Z" fill="#F7F7F7"/>
<path d="M244.07 707.133L222.838 629.287H279.465V698.778H319.358V710.358H317.43L319.674 799.47H315.175V709.389H252.764L245.04 799.47H241.184L244.07 707.133Z" fill="#D3D3D3"/>
<path d="M361.962 681.636C360.303 680.456 358.772 679.089 358.071 678.692C357.779 678.528 356.856 678.318 356.599 678.236C355.827 678.002 354.6 677.768 354.063 677.161L351.784 674.66C350.698 673.433 349.284 673.024 348.057 674.111C346.725 675.279 347.122 676.95 348.442 678.131L350.008 679.907C351.06 680.853 351.586 682.185 352.17 683.482C353.362 686.112 356.038 688.086 358.34 689.477C359.789 690.342 361.974 689.734 364.837 688.753C366.239 688.273 368.284 687.105 366.531 686.45C365.059 685.901 360.63 687.093 358.667 683.015C358.573 682.816 358.363 682.279 358.562 682.092C359.158 681.531 360.466 682.793 361.343 683.19C362.57 683.751 363.551 683.564 363.867 683.109C364.182 682.641 363.142 682.478 361.962 681.636Z" fill="#FAB9AF"/>
<path d="M299.598 592.058C299.598 592.058 303.256 635.994 316.39 650.822C324.312 659.762 343.663 675.081 348.15 678.598C348.723 679.042 349.517 679.065 350.113 678.645C350.487 678.376 350.919 678.049 351.293 677.722C351.667 677.395 352.111 676.904 352.497 676.448C353.151 675.688 353.116 674.555 352.439 673.819C347.414 668.35 327.701 646.709 325.306 641.019C322.56 634.486 317.827 595.96 313.48 590.375C309.133 584.789 300.79 583.574 299.598 592.058Z" fill="rgb(0, 167, 111)"/>
<path d="M316.18 664.646L304.985 585.946L274.767 581.81L259.051 664.073L316.18 664.646Z" fill="#FAB9AF"/>
<path d="M317.336 662.636L304.985 585.946L274.767 581.798L258.525 662.776C258.221 664.295 259.203 665.779 260.733 666.06C266.354 667.123 279.932 669.355 295.111 669.355C306.446 669.355 312.814 667.146 315.712 665.756C316.286 665.484 316.756 665.033 317.049 664.469C317.342 663.906 317.443 663.262 317.336 662.636Z" fill="#D3D3D3"/>
<path d="M284.209 586.577C284.209 592.104 283.204 597.573 281.323 602.761C277.63 612.916 272.091 632.126 275.387 649.046C280.119 673.41 286.219 683.261 278.32 688.94C270.42 694.619 255.276 685.142 254.844 681.987C254.412 678.832 257.789 640.025 261.622 623.21C265.454 606.395 276.205 582.23 276.205 582.23L280.762 582.721C281.709 582.83 282.583 583.283 283.219 583.994C283.854 584.705 284.207 585.624 284.209 586.577ZM296.794 584.825C296.794 584.825 302.029 596.148 300.206 612.425C298.383 628.691 294.141 678.248 308.947 685.726C313.632 688.098 324.348 677.605 324.348 673.714C324.348 669.823 320.772 656.794 317.383 644.945C313.995 633.096 305.838 586.075 305.838 586.075L296.794 584.825Z" fill="rgb(0, 167, 111)"/>
<path d="M292.575 549.722C285.833 549.722 283.321 554.525 283.192 563.406C283.145 566.736 284.641 570.031 285.845 572.134C286.745 573.7 286.99 575.546 286.476 577.276L284.992 582.289C283.987 586.939 286.195 589.487 289.455 590.41C291.068 590.866 293.008 590.515 294.41 589.604C296.081 588.517 296.221 586.192 295.917 584.217L295.532 582.791C295.018 580.863 296.128 578.795 298.079 578.363C303.267 577.229 304.015 571.819 305.406 563.406C306.843 554.642 299.318 549.722 292.575 549.722Z" fill="#FAB9AF"/>
<path d="M308.269 545.831L304.401 547.011C302.982 547.445 301.466 547.453 300.042 547.035L292.318 544.791C287.644 544.791 279.92 547.432 280.89 554.186L281.755 558.953C282.094 560.858 283.695 562.284 285.623 562.447C285.798 563.102 286.406 563.569 287.083 563.569C287.925 563.569 288.602 562.891 288.602 562.062C288.602 559.912 290.11 558.077 292.213 557.598C294.784 557.025 297.542 556.885 300.416 557.656C305.78 559.094 311.435 555.775 311.973 550.236C312.008 549.886 312.02 549.535 312.02 549.173C312.031 546.941 310.185 545.305 308.269 545.831Z" fill="#0B4870"/>
<path d="M286.897 563.569C286.897 565.626 286.125 567.297 284.151 567.297C282.164 567.297 280.89 564.469 280.89 562.413C280.89 560.356 282.164 559.842 284.151 559.842C286.137 559.842 286.897 561.513 286.897 563.569Z" fill="#FAB9AF"/>
<path d="M286.079 572.613C286.079 572.613 291.115 579.543 297.378 578.596C297.378 578.596 296.081 579.215 295.766 580.232C295.766 580.232 289.818 579.788 286.079 572.613Z" fill="#E8948B"/>
<path d="M225.269 731.123L217.966 741.324C216.48 743.4 215.292 745.673 214.437 748.078L213.093 751.864C211.983 754.972 208.22 756.153 205.533 754.236C198.58 749.27 186.661 740.833 183.588 738.66C183.085 738.309 182.828 737.62 183.144 737.082C185.002 733.916 192.679 740.857 200.964 742.96C207.274 744.561 215.699 732.642 218.772 727.021C219.94 724.895 222.757 724.381 224.615 725.946C225.357 726.567 225.837 727.446 225.959 728.406C226.08 729.366 225.834 730.337 225.269 731.123Z" fill="#FAB9AF"/>
<path d="M322.887 677.745C321.449 677.021 299.879 651.851 286.207 649.701C272.547 647.539 271.11 656.174 253.851 676.308C236.592 696.442 210.697 736.72 210.697 736.72L218.608 742.47C218.608 742.47 255.288 697.879 266.786 687.093C278.296 676.308 282.97 673.784 286.558 683.857C290.157 693.929 298.78 711.188 316.039 701.116C333.31 691.055 322.887 677.745 322.887 677.745Z" fill="#0B4870"/>
<path d="M290.577 768.995L294.901 783.344C295.088 783.975 295.38 784.583 295.742 785.132L298.804 789.677C300.743 792.564 299.353 796.513 296.023 797.53C296.023 797.53 289.841 799.703 283.473 801.795C276.952 803.933 268.749 802.146 268.749 800.428C268.749 796.607 272.313 799.645 278.284 795.649C280.283 794.316 282.351 792.914 284.185 791.465C289.327 787.434 284.84 777.221 281.696 771.472C280.563 769.404 281.767 766.833 284.069 766.342L285.553 766.027C287.761 765.571 289.935 766.856 290.577 768.995Z" fill="#FAB9AF"/>
<path d="M279.021 671.272C279.021 671.272 257.45 669.834 262.486 693.567C267.522 717.3 282.62 777.7 282.62 777.7H296.28L292.681 692.843C292.681 692.854 281.895 671.272 279.021 671.272ZM295.088 783.87C295.088 783.87 289.689 786.628 286.511 786.675C286.511 786.675 287.492 791.454 279.944 794.55C272.395 797.659 268.527 795.719 268.527 800.229C268.527 804.728 278.179 806.668 284.618 804.728C291.056 802.8 299.411 797.004 301.351 795.719C303.267 794.434 295.088 783.87 295.088 783.87ZM215.219 745.519C215.219 745.519 209.283 742.598 207.18 739.84C207.18 739.84 203.639 743.813 196.009 739.233C188.379 734.652 187.549 730.013 183.611 732.946C179.673 735.879 184.277 745.578 190.155 749.948C196.032 754.318 206.549 757.859 208.933 758.712C211.317 759.565 215.219 745.519 215.219 745.519Z" fill="#0B4870"/>
<path d="M275.924 582.102C275.924 582.102 265.407 611.315 266.576 630.011C267.744 648.707 267.733 663.957 257.216 652.236C246.699 640.516 253.722 580.933 275.924 582.102Z" fill="rgb(0, 167, 111)"/>
<path d="M317.734 614.131C316.063 616.188 314.17 618.069 313.597 618.957C313.352 619.331 313.013 620.511 312.896 620.838C312.534 621.82 312.136 623.409 311.307 624.052L307.871 626.821C306.189 628.13 305.546 629.93 306.855 631.612C308.269 633.435 310.465 633.049 312.113 631.437L314.544 629.544C315.864 628.247 317.64 627.674 319.358 627.02C322.875 625.688 325.656 622.357 327.654 619.471C328.905 617.66 328.274 614.774 327.234 610.964C326.72 609.095 325.364 606.349 324.371 608.581C323.541 610.45 324.745 616.305 319.264 618.525C318.996 618.63 318.283 618.864 318.061 618.595C317.383 617.777 319.124 616.176 319.72 615.066C320.55 613.512 320.374 612.215 319.814 611.782C319.229 611.315 318.925 612.67 317.734 614.131Z" fill="#FAB9AF"/>
<path d="M253.676 644.139C253.676 644.139 256.258 666.189 268.422 658.032C280.598 649.876 302.8 639.359 308.643 634.685L314.485 630.011L310.875 622.381L253.676 644.139Z" fill="rgb(0, 167, 111)"/>
<path d="M612.773 705.965L634.005 628.118H577.39V697.61H537.497V709.19H539.425L537.17 798.301H541.68V708.22H604.091L611.815 798.301H615.671L612.773 705.965Z" fill="#D3D3D3"/>
<path d="M559.138 613.885C566.734 613.885 572.891 605.944 572.891 596.147C572.891 586.351 566.734 578.409 559.138 578.409C551.542 578.409 545.384 586.351 545.384 596.147C545.384 605.944 551.542 613.885 559.138 613.885Z" fill="#0B4870"/>
<path d="M562.433 597.982C562.655 588.166 570.601 579.905 580.405 579.344C589.099 578.842 596.612 584.182 599.428 591.789C600.41 594.453 603.027 596.194 605.867 596.147C607.047 596.124 608.262 596.241 609.501 596.486C616.687 597.959 622.273 604.035 623.021 611.326C623.698 617.905 620.625 623.818 615.671 627.183C613.556 628.621 612.364 631.004 612.013 633.528C610.389 645.237 599.709 653.825 587.509 652.493C577.086 651.348 568.743 642.771 567.855 632.325C567.306 625.91 569.514 620.032 573.382 615.662C566.803 612.553 562.258 605.799 562.433 597.982ZM559.138 572.59C559.138 572.59 551.402 577.463 552.337 584.018C552.337 584.018 548.2 581.097 547.266 571.013C546.623 564.025 559.138 572.59 559.138 572.59Z" fill="#0B4870"/>
<path d="M554.37 612.565C554.183 618.256 553.81 623.982 553.003 629.742C552.162 635.48 550.982 641.287 548.797 646.908C547.71 649.712 546.366 652.458 544.683 655.041C543.012 657.623 540.944 660.007 538.514 661.947C536.095 663.898 533.372 665.429 530.521 666.434C527.658 667.439 524.713 667.941 521.804 668.14C520.962 668.198 520.238 667.556 520.18 666.726C520.133 665.955 520.659 665.289 521.383 665.137H521.395C526.665 664.027 531.456 661.608 534.856 657.962C538.292 654.34 540.395 649.607 541.68 644.606C542.966 639.581 543.538 634.276 543.76 628.901C543.889 626.213 543.924 623.502 543.901 620.78C543.889 618.057 543.842 615.323 543.749 612.589C543.7 611.181 544.211 609.812 545.171 608.782C546.131 607.752 547.46 607.144 548.867 607.093C550.274 607.042 551.644 607.552 552.676 608.51C553.708 609.468 554.317 610.796 554.37 612.203V612.565Z" fill="#FAB9AF"/>
<path d="M550.479 646.558C547.383 637.233 541.154 617.473 541.692 611.011C541.856 609.018 542.765 607.16 544.238 605.807C545.71 604.453 547.638 603.704 549.638 603.708H576.572C581.036 603.708 584.693 607.249 584.822 611.712C585.044 619.518 581.457 637.268 579.435 646.558H550.479Z" fill="#2596be"/>
<path d="M582.508 658.383C581.118 654.472 580.697 650.282 581.282 646.172C582.637 636.625 585.021 618.642 584.799 611.011C584.742 609.051 583.923 607.19 582.515 605.824C581.108 604.458 579.223 603.695 577.262 603.696H573.265C571.746 607.225 568.521 609.948 563.508 609.948C558.507 609.948 555.282 607.225 553.763 603.696H550.012C554.09 612.425 552.618 623.935 545.607 630.654C546.915 635.258 548.002 639.897 548.82 643.648C549.93 648.731 549.439 654.036 547.441 658.85C543.994 667.112 541.271 680.363 542.078 685.609C570.414 693.637 589.999 679.428 589.999 679.428L582.508 658.383Z" fill="#2596be"/>
<path d="M559.138 605.566L571.361 604.28L567.493 590.913L559.594 591.882L559.138 605.566Z" fill="#FAB9AF"/>
<path d="M559.594 591.882L567.493 590.901L568.696 595.072C566.932 597.071 564.653 601.371 561.779 601.371C560.867 601.371 560.038 601.114 559.29 600.635L559.594 591.882Z" fill="#FA968C"/>
<path d="M559.313 598.356C562.001 598.356 564.899 597.012 568.895 593.518C571.185 591.508 572.891 588.014 572.891 585.654V572.59H552.781C552.781 572.59 551.274 579.531 552.734 586.413C553.833 591.567 557.21 598.356 559.313 598.356Z" fill="#FAB9AF"/>
<path d="M569.479 583.177C569.479 585.725 570.695 587.793 572.202 587.793C573.709 587.793 575.369 584.451 575.369 581.903C575.369 579.356 573.709 578.562 572.202 578.562C570.706 578.562 569.479 580.63 569.479 583.177Z" fill="#FAB9AF"/>
<path d="M575.369 574.167C575.369 572.209 574.591 570.33 573.206 568.945C571.821 567.56 569.942 566.782 567.984 566.782H561.195C559.255 566.782 557.373 566.28 555.714 565.333C553.319 563.978 550.292 564.422 548.656 566.642C546.892 569.038 546.121 572.251 550.608 575.219C552.84 576.691 556.088 575.055 558.262 575.768C558.39 575.768 558.519 575.745 558.659 575.745H564.642C566.722 575.745 568.311 577.439 568.369 579.519C568.404 580.84 569.479 581.891 570.811 581.891H571.08L572.038 578.818L575.38 583.317V574.167H575.369Z" fill="#0B4870"/>
<path d="M516.218 662.063C516.218 662.063 523.253 662.881 523.72 665.113C524.176 667.345 524.082 668.923 520.857 669.717C517.632 670.512 512.841 670.056 510.013 669.215C507.186 668.373 503.061 664.961 502.85 664.295C502.114 661.9 507.069 663.968 509.523 664.856C511.965 665.744 514.828 666.492 514.91 665.195C515.003 663.898 510.189 662.554 509.803 661.035C509.418 659.516 516.218 662.063 516.218 662.063ZM537.158 665.172C537.158 665.172 544.146 664.026 545.209 666.048C546.261 668.07 546.6 669.612 543.725 671.26C540.839 672.907 536.106 673.795 533.162 673.76C530.217 673.725 525.298 671.575 524.924 671.003C523.557 668.899 528.897 669.53 531.491 669.705C534.085 669.881 537.041 669.822 536.772 668.549C536.504 667.275 531.502 667.31 530.72 665.955C529.925 664.599 537.158 665.172 537.158 665.172Z" fill="#FAB9AF"/>
<path d="M554.277 572.356C554.955 575.336 553.961 576.972 563.742 581.634C573.522 586.297 576.619 584.298 579.68 589.323C579.68 589.323 578.348 581.015 572.938 578.164C567.54 575.313 558.168 573.443 555.153 566.841C555.153 566.841 553.821 570.311 554.277 572.356Z" fill="#0B4870"/>
<path d="M583.77 609.27C585.266 611.245 586.458 613.056 587.685 615.007C588.888 616.935 590.045 618.887 591.12 620.897C593.247 624.928 595.152 629.123 596.624 633.575C598.061 638.027 599.078 642.771 599.043 647.831C599.008 650.355 598.669 652.961 597.874 655.508C597.115 658.056 595.794 660.509 594.088 662.578C592.394 664.658 590.337 666.364 588.176 667.672C586.002 668.993 583.735 669.951 581.457 670.687C579.178 671.423 576.888 671.879 574.609 672.265C572.33 672.568 570.064 672.802 567.808 672.861C558.799 673.2 550.047 672.078 541.47 670.465C540.64 670.313 540.103 669.519 540.255 668.689C540.395 667.929 541.073 667.415 541.82 667.45H541.844C546.144 667.661 550.421 667.824 554.686 667.743C558.939 667.684 563.169 667.462 567.283 666.878C571.396 666.294 575.404 665.382 579.003 663.922C582.578 662.437 585.663 660.311 587.486 657.576C589.344 654.877 590.034 651.547 589.87 647.948C589.683 644.337 588.643 640.551 587.241 636.859C585.85 633.143 584.027 629.485 581.982 625.945C580.967 624.161 579.899 622.407 578.781 620.686C578.22 619.822 577.647 618.98 577.063 618.139C576.502 617.321 575.871 616.421 575.345 615.732L575.299 615.662C573.534 613.325 574.001 609.994 576.339 608.23C578.676 606.465 582.006 606.933 583.77 609.27Z" fill="#FAB9AF"/>
<path d="M556.158 572.917C556.158 572.917 555.784 582.966 546.997 587.804C546.997 587.804 550.865 580.209 550.608 575.231C550.351 570.265 556.743 569.482 556.158 572.917Z" fill="#0B4870"/>
<path d="M520.273 767.218L517.118 781.217C516.16 785.494 516.756 789.993 518.824 793.861C519.981 796.022 518.953 798.71 516.639 799.528C509.16 802.192 494.671 807.263 494.028 806.714C490.733 803.922 499.438 799.318 505.877 794.48C510.212 791.22 511.871 776.017 512.257 764.355L519.163 766.097C519.7 766.26 520.121 766.681 520.273 767.218Z" fill="#FA968C"/>
<path d="M561.72 678.143L590.501 679.416C590.501 679.416 598.178 703.079 584.109 704.995C570.04 706.911 529.107 702.436 527.822 708.828C526.548 715.22 520.144 771.507 520.144 771.507H510.551C510.551 771.507 511.193 735.692 510.551 717.136C509.908 698.58 507.349 690.914 515.026 687.713C522.703 684.546 561.72 678.143 561.72 678.143Z" fill="#0B4870"/>
<path d="M528.499 733.811C528.499 733.811 530.147 747.833 530.603 750.193C530.977 752.145 532.332 753.687 533.606 755.206C534.015 755.697 534.319 756.655 534.576 757.473C534.786 758.127 534.611 758.817 534.225 759.378C527.284 769.17 513.916 770.245 513.858 769.345C513.741 767.733 516.347 765.255 519.303 764.472C522.283 763.678 524.538 761.236 525.449 758.291C526.174 755.954 526.291 753.465 525.788 751.07L523.381 740.308L528.499 733.811Z" fill="#FA968C"/>
<path d="M536.258 763.257C536.936 762.802 537.181 761.925 536.843 761.189C536.562 760.581 535.826 758.934 535.265 757.695C535.209 757.573 535.123 757.467 535.015 757.387C534.907 757.307 534.781 757.256 534.648 757.238C534.514 757.221 534.379 757.238 534.254 757.287C534.129 757.336 534.018 757.416 533.933 757.52C529.586 762.58 523.72 765.851 517.445 765.045C515.12 765.84 513.063 768.492 513.157 769.766C513.18 770.07 515.856 770.829 519.116 769.976C533.582 766.202 536.258 763.257 536.258 763.257ZM545.057 681.648L525.87 686.123L530.346 745.613L523.311 746.886C523.311 746.886 506.04 705.311 506.683 686.123C507.326 666.936 522.669 672.697 531.631 675.245C540.582 677.815 545.057 681.648 545.057 681.648ZM507.349 798.477C504.253 799.493 500.864 799.82 497.756 800.206C497.405 800.253 497.055 800.393 496.774 800.603C493.794 802.917 492.287 805.242 494.04 806.715C494.741 807.31 511.766 801.281 518.403 798.897C519.794 798.395 520.402 796.794 519.7 795.485L518.438 793.113C514.968 795.333 511.264 797.179 507.349 798.477ZM341.478 659.248H499.111V665.043H341.478V659.248Z" fill="#0B4870"/>
<path d="M349.202 665.043H352.415V799.517H349.202V665.043ZM487.531 665.043H490.745V799.517H487.531V665.043Z" fill="#76838B"/>
<path d="M684.403 799.622C684.403 801.924 682.533 803.782 680.243 803.782H664.176C661.874 803.782 660.016 801.912 660.016 799.622V762.147C660.016 759.845 661.886 757.987 664.176 757.987H680.243C682.545 757.987 684.403 759.857 684.403 762.147V799.622Z" fill="rgb(0, 167, 111)"/>
<path opacity="0.4" d="M674.132 714.846C674.132 714.846 660.986 741.57 680.36 746.127C699.734 750.684 700.295 730.515 698.308 722.207C696.322 713.899 727.066 691.557 701.709 671.797C676.352 652.038 656.592 704.644 674.132 714.846Z" fill="#2596be"/>
<path opacity="0.4" d="M649.651 729.347C649.651 729.347 649.032 746.933 660.577 744.701C672.122 742.469 667.541 731.462 664.456 727.466C661.372 723.469 672.543 703.99 654.092 699.468C635.653 694.957 637.732 728.108 649.651 729.347Z" fill="#2596be"/>
<path d="M651.614 712.777L665.894 757.987M659.946 721.973L656.919 729.569L650.037 725.771M689.615 687.198L677.369 757.987M696.801 697.902L686.658 704.305L680.15 695.518M694.032 712.742L683.877 719.157L677.369 710.37" stroke="#4D4D4D" stroke-miterlimit="10"/>
<path d="M149.222 799.622C149.222 801.924 147.352 803.782 145.062 803.782H128.995C126.693 803.782 124.835 801.912 124.835 799.622V762.147C124.835 759.845 126.704 757.987 128.995 757.987H145.062C147.364 757.987 149.222 759.857 149.222 762.147V799.622Z" fill="rgb(0, 167, 111)"/>
<path opacity="0.4" d="M138.95 714.846C138.95 714.846 125.804 741.57 145.178 746.127C164.552 750.684 165.113 730.515 163.127 722.207C161.14 713.899 191.884 691.557 166.527 671.797C141.17 652.038 121.411 704.644 138.95 714.846Z" fill="#2596be"/>
<path opacity="0.4" d="M114.47 729.347C114.47 729.347 113.85 746.933 125.395 744.701C136.94 742.469 132.36 731.462 129.275 727.466C126.19 723.469 137.361 703.99 118.91 699.468C100.459 694.946 102.551 728.108 114.47 729.347Z" fill="#2596be"/>
<path d="M116.433 712.777L130.712 757.987M124.765 721.973L121.738 729.569L114.855 725.771M154.433 687.198L142.187 757.987M161.62 697.902L151.477 704.305L144.968 695.518M158.85 712.742L148.696 719.157L142.187 710.37" stroke="#4D4D4D" stroke-miterlimit="10"/>
<path d="M392.788 475.989H291.243C288.567 475.989 286.394 478.162 286.394 480.838V516.49C286.394 519.166 288.567 521.339 291.243 521.339H298.231V537.172L317.629 521.339H392.788C395.464 521.339 397.637 519.166 397.637 516.49V480.838C397.636 479.552 397.125 478.319 396.216 477.41C395.306 476.501 394.074 475.99 392.788 475.989ZM293.732 497.232H354.203V499.277H293.732V497.232ZM385.753 506.581H293.732V504.536H385.753V506.581ZM385.753 492.266H293.732V490.221H385.753V492.266Z" fill="rgb(0, 167, 111)"/>
<path d="M456.986 494.86V530.512C456.986 533.188 459.159 535.361 461.835 535.361H536.995L556.392 551.194V535.361H563.38C566.056 535.361 568.229 533.188 568.229 530.512V494.86C568.229 492.184 566.056 490.011 563.38 490.011H461.835C459.159 490.011 456.986 492.172 456.986 494.86ZM560.891 513.299H500.42V511.254H560.891V513.299ZM468.87 518.558H560.891V520.603H468.87V518.558ZM468.87 504.243H560.891V506.288H468.87V504.243Z" fill="#2596be"/>
<path opacity="0.4" d="M115.668 642.264C117.248 634.024 114.419 626.556 109.349 625.584C104.279 624.611 98.8869 630.502 97.3064 638.741C95.7259 646.981 98.5549 654.449 103.625 655.421C108.696 656.394 114.087 650.503 115.668 642.264Z" fill="rgb(0, 167, 111)"/>
<path opacity="0.4" d="M116.79 634.946C120.441 631.296 119.982 624.918 115.765 620.702C111.549 616.485 105.171 616.027 101.52 619.677C97.8698 623.328 98.3286 629.706 102.545 633.922C106.762 638.139 113.139 638.597 116.79 634.946Z" fill="rgb(0, 167, 111)"/>
<path opacity="0.4" d="M719.772 642.253C721.352 634.014 718.523 626.546 713.453 625.573C708.382 624.6 702.991 630.491 701.41 638.731C699.83 646.97 702.659 654.438 707.729 655.411C712.799 656.383 718.191 650.492 719.772 642.253Z" fill="rgb(0, 167, 111)"/>
<path opacity="0.4" d="M720.91 634.95C724.561 631.3 724.102 624.922 719.885 620.706C715.669 616.489 709.291 616.031 705.64 619.681C701.99 623.332 702.449 629.71 706.665 633.926C710.882 638.143 717.259 638.601 720.91 634.95Z" fill="rgb(0, 167, 111)"/>
<path d="M249.048 864.883H120.511C117.929 864.883 115.837 862.792 115.837 860.209C115.837 857.627 117.929 855.535 120.511 855.535H249.048C251.631 855.535 253.722 857.627 253.722 860.209C253.722 862.792 251.631 864.883 249.048 864.883ZM465.224 864.883H336.687C334.105 864.883 332.013 862.792 332.013 860.209C332.013 857.627 334.105 855.535 336.687 855.535H465.224C467.807 855.535 469.898 857.627 469.898 860.209C469.898 862.792 467.807 864.883 465.224 864.883ZM693.085 864.883H564.548C561.966 864.883 559.874 862.792 559.874 860.209C559.874 857.627 561.966 855.535 564.548 855.535H693.085C695.668 855.535 697.759 857.627 697.759 860.209C697.759 862.792 695.668 864.883 693.085 864.883ZM361.226 890.591H232.689C230.107 890.591 228.015 888.499 228.015 885.917C228.015 883.334 230.107 881.243 232.689 881.243H361.226C363.808 881.243 365.9 883.334 365.9 885.917C365.9 888.499 363.808 890.591 361.226 890.591ZM584.413 890.591H455.876C453.294 890.591 451.202 888.499 451.202 885.917C451.202 883.334 453.294 881.243 455.876 881.243H584.413C586.995 881.243 589.087 883.334 589.087 885.917C589.087 888.499 586.995 890.591 584.413 890.591Z" fill="#D3D3D3"/>
</svg>
